HIERARCHY
ROOT Hips
{
	OFFSET 0.00000 0.00000 0.00000
	CHANNELS 6 Xposition Yposition Zposition Zrotation Yrotation Xrotation 
	JOINT LHipJoint
	{
		OFFSET 0 0 0
		CHANNELS 3 Zrotation Yrotation Xrotation
		JOINT LeftUpLeg
		{
			OFFSET 1.34019 -1.87553 0.90315
			CHANNELS 3 Zrotation Yrotation Xrotation
			JOINT LeftLeg
			{
				OFFSET 2.55316 -7.01474 0.00000
				CHANNELS 3 Zrotation Yrotation Xrotation
				JOINT LeftFoot
				{
					OFFSET 2.64657 -7.27139 0.00000
					CHANNELS 3 Zrotation Yrotation Xrotation
					JOINT LeftToeBase
					{
						OFFSET 0.24207 -0.66507 2.14489
						CHANNELS 3 Zrotation Yrotation Xrotation
						End Site
						{
							OFFSET 0.00000 -0.00000 1.12451
						}
					}
				}
			}
		}
	}
	JOINT RHipJoint
	{
		OFFSET 0 0 0
		CHANNELS 3 Zrotation Yrotation Xrotation
		JOINT RightUpLeg
		{
			OFFSET -1.28320 -1.87553 0.90315
			CHANNELS 3 Zrotation Yrotation Xrotation
			JOINT RightLeg
			{
				OFFSET -2.60484 -7.15674 0.00000
				CHANNELS 3 Zrotation Yrotation Xrotation
				JOINT RightFoot
				{
					OFFSET -2.60296 -7.15159 0.00000
					CHANNELS 3 Zrotation Yrotation Xrotation
					JOINT RightToeBase
					{
						OFFSET -0.31082 -0.85398 2.28998
						CHANNELS 3 Zrotation Yrotation Xrotation
						End Site
						{
							OFFSET -0.00000 -0.00000 1.21611
						}
					}
				}
			}
		}
	}
	JOINT LowerBack
	{
		OFFSET 0 0 0
		CHANNELS 3 Zrotation Yrotation Xrotation
		JOINT Spine
		{
			OFFSET -0.00160 2.05581 -0.15156
			CHANNELS 3 Zrotation Yrotation Xrotation
			JOINT Spine1
			{
				OFFSET 0.04594 2.06326 -0.01617
				CHANNELS 3 Zrotation Yrotation Xrotation
				JOINT Neck
				{
					OFFSET 0 0 0
					CHANNELS 3 Zrotation Yrotation Xrotation
					JOINT Neck1
					{
						OFFSET 0.03753 1.73883 0.26751
						CHANNELS 3 Zrotation Yrotation Xrotation
						JOINT Head
						{
							OFFSET -0.09795 1.76129 -0.31794
							CHANNELS 3 Zrotation Yrotation Xrotation
							End Site
							{
								OFFSET -0.03611 1.79987 -0.13846
							}
						}
					}
				}
				JOINT LeftShoulder
				{
					OFFSET 0 0 0
					CHANNELS 3 Zrotation Yrotation Xrotation
					JOINT LeftArm
					{
						OFFSET 3.30667 1.29205 -0.22445
						CHANNELS 3 Zrotation Yrotation Xrotation
						JOINT LeftForeArm
						{
							OFFSET 4.92785 -0.00000 -0.00000
							CHANNELS 3 Zrotation Yrotation Xrotation
							JOINT LeftHand
							{
								OFFSET 3.44052 -0.00000 0.00000
								CHANNELS 3 Zrotation Yrotation Xrotation
								JOINT LeftFingerBase
								{
									OFFSET 0 0 0
									CHANNELS 3 Zrotation Yrotation Xrotation
									JOINT LeftHandIndex1
									{
										OFFSET 0.65433 -0.00000 0.00000
										CHANNELS 3 Zrotation Yrotation Xrotation
										End Site
										{
											OFFSET 0.52753 -0.00000 0.00000
										}
									}
								}
								JOINT LThumb
								{
									OFFSET 0 0 0
									CHANNELS 3 Zrotation Yrotation Xrotation
									End Site
									{
										OFFSET 0.53559 -0.00000 0.53559
									}
								}
							}
						}
					}
				}
				JOINT RightShoulder
				{
					OFFSET 0 0 0
					CHANNELS 3 Zrotation Yrotation Xrotation
					JOINT RightArm
					{
						OFFSET -3.20032 1.49783 -0.27688
						CHANNELS 3 Zrotation Yrotation Xrotation
						JOINT RightForeArm
						{
							OFFSET -5.09181 -0.00000 -0.00000
							CHANNELS 3 Zrotation Yrotation Xrotation
							JOINT RightHand
							{
								OFFSET -3.49865 -0.00000 -0.00000
								CHANNELS 3 Zrotation Yrotation Xrotation
								JOINT RightFingerBase
								{
									OFFSET 0 0 0
									CHANNELS 3 Zrotation Yrotation Xrotation
									JOINT RightHandIndex1
									{
										OFFSET -0.66641 -0.00000 0.00000
										CHANNELS 3 Zrotation Yrotation Xrotation
										End Site
										{
											OFFSET -0.53728 -0.00000 0.00000
										}
									}
								}
								JOINT RThumb
								{
									OFFSET 0 0 0
									CHANNELS 3 Zrotation Yrotation Xrotation
									End Site
									{
										OFFSET -0.54548 -0.00000 0.54548
									}
								}
							}
						}
					}
				}
			}
		}
	}
}
MOTION
Frames: 6
Frame Time: .0083333
1.0383 17.8215 -26.8698 0 0 0 0 0 0 -21 0 0 0 0 0 0 0 0 0 0 0 0 0 0 21 0 0 0 0 0 0 0 0 0 0 0 0 0 0 0 0 0 0 0 0 0 0 -16 0 0 21 0 0 11 0 0 0 -8 0 0 0 0 0 0 0 0 0 0 0 0 0 0 0 0 0 0 0 0 8 0 0 0 0 0 0 0 0 0 0 0 0 0 0 0 0 0
1.0383 17.8215 -26.8698 2.0711 38.9779 2.4233 0.0000 0.0000 0.0000 -18.4148 -12.1620 -9.6243 2.3257 9.5139 27.4163 0.4559 -6.3121 -12.1459 0.1950 -2.8434 -7.8431 0.0000 0.0000 0.0000 13.9721 -12.6257 -5.0538 -2.1207 -9.1131 26.1498 2.3693 -32.3266 -33.4829 -0.0382 -1.2614 3.4685 -2.3667 5.2063 0.8645 1.1098 6.9264 -0.2068 2.3019 3.4821 -1.1109 10.5162 20.2691 6.3749 -11.1626 28.0407 1.5228 -4.0063 14.1630 2.4711 0.0000 0.0000 0.0000 -89.1176 3.3827 21.7461 14.6411 -23.6438 -3.0806 -0.0000 0.0000 -7.2447 13.4006 1.0272 0.2447 -7.1250 0.0000 -0.0000 -10.4492 30.9356 3.6449 0.0000 0.0000 0.0000 81.3179 -5.4789 17.0432 -15.4339 24.7470 -3.4055 0.0000 -0.0000 -10.9593 -16.9436 -0.6854 0.2088 7.1250 -0.0000 -0.0000 7.6253 -30.6464 2.6946
1.0375 17.8226 -26.8673 2.0824 39.0288 2.4127 0.0000 0.0000 0.0000 -18.4239 -12.1832 -9.5831 2.3217 9.5062 27.3921 0.4544 -6.3245 -12.1299 0.1903 -2.8097 -7.7494 0.0000 0.0000 0.0000 13.9818 -12.5892 -5.0112 -2.1265 -9.1247 26.1861 2.2896 -32.2110 -33.7442 -0.0448 -1.3654 3.7547 -2.8715 4.4167 0.6968 1.9242 5.8819 0.3297 3.4848 2.9514 -0.5412 7.8194 21.2665 5.2602 -10.8875 29.1392 1.3966 -3.5112 14.6730 2.3093 0.0000 -0.0000 0.0000 -90.9255 2.6837 18.9121 14.6576 -23.6669 -3.0872 -0.0000 0.0000 -6.6150 13.4583 0.8036 0.1923 -7.1250 0.0000 -0.0000 -10.3784 30.7106 3.6763 0.0000 -0.0000 0.0000 80.5088 -4.0585 17.5121 -15.1628 24.3724 -3.2928 0.0000 -0.0000 -9.1411 -16.2368 -0.6402 0.1864 7.1250 -0.0000 -0.0000 8.1782 -30.5895 2.9047
1.0407 17.8193 -26.8651 2.2478 39.1294 2.4803 0.0000 0.0000 0.0000 -18.5926 -12.1963 -9.5279 2.3221 9.5070 27.3945 0.4552 -6.3561 -12.1435 0.1933 -2.8316 -7.8101 0.0000 0.0000 0.0000 13.8104 -12.7683 -5.0083 -2.1276 -9.1269 26.1931 2.3568 -32.3191 -33.5468 -0.0408 -1.3036 3.5845 -3.4557 3.6721 0.5760 2.6851 4.8946 0.8502 4.6514 2.4403 0.0279 5.2452 22.1802 3.9345 -10.2863 30.1740 1.2394 -3.2588 15.1643 2.3217 0.0000 0.0000 0.0000 -92.6586 2.0150 16.5268 14.7760 -23.8331 -3.1349 -0.0000 0.0000 -6.3744 13.5279 0.8551 0.2057 -7.1250 0.0000 -0.0000 -10.3297 30.7640 3.6451 0.0000 0.0000 0.0000 79.7935 -2.7047 17.7444 -14.9071 24.0166 -3.1881 0.0000 -0.0000 -7.0521 -16.2104 -0.4041 0.1175 7.1250 -0.0000 -0.0000 8.1779 -30.3458 2.9527
1.0396 17.8186 -26.8613 2.2351 39.2237 2.4529 0.0000 0.0000 0.0000 -18.5693 -12.1731 -9.5208 2.3222 9.5072 27.3951 0.4533 -6.4705 -12.1361 0.1920 -2.8215 -7.7823 0.0000 0.0000 0.0000 13.8518 -12.7786 -4.9715 -2.1292 -9.1302 26.2036 2.3779 -32.4114 -33.6108 -0.0411 -1.3092 3.6000 -3.3650 3.8373 0.5551 2.5172 5.1148 0.8532 4.4240 2.5498 0.0424 4.9827 22.1371 3.9351 -10.0487 30.0171 0.5316 -3.2358 15.0977 1.9807 0.0000 0.0000 0.0000 -92.2768 1.9065 17.1214 14.7608 -23.8118 -3.1287 -0.0000 0.0000 -6.4921 13.5594 0.9431 0.2274 -7.1250 0.0000 -0.0000 -10.3149 30.8537 3.6173 0.0000 0.0000 0.0000 79.9870 -3.2095 17.6654 -15.1539 24.3601 -3.2892 0.0000 -0.0000 -7.6219 -16.3402 -0.3905 0.1145 7.1250 -0.0000 -0.0000 8.0748 -30.3333 2.9172
1.0395 17.8173 -26.8580 2.2619 39.3138 2.4425 0.0000 0.0000 0.0000 -18.5930 -12.1814 -9.4931 2.3239 9.5105 27.4055 0.4532 -6.5285 -12.1427 0.1922 -2.8236 -7.7882 0.0000 0.0000 0.0000 13.8439 -12.8205 -4.9300 -2.1297 -9.1311 26.2063 2.3951 -32.4790 -33.6467 -0.0414 -1.3127 3.6096 -3.4591 3.7251 0.5250 2.6317 4.9662 0.9468 4.6045 2.4713 0.1526 4.5150 22.2690 3.7654 -9.9873 30.1607 0.4335 -3.1533 15.1670 1.9017 -0.0000 -0.0000 0.0000 -92.5237 1.7727 16.8289 14.7998 -23.8664 -3.1445 -0.0000 0.0000 -6.5010 13.5879 0.9756 0.2358 -7.1250 0.0000 -0.0000 -10.2962 30.8871 3.6021 -0.0000 -0.0000 0.0000 79.9673 -3.0187 17.4901 -15.0953 24.2788 -3.2650 0.0000 -0.0000 -7.1958 -16.3112 -0.3323 0.0973 7.1250 -0.0000 -0.0000 8.0925 -30.2730 2.9355
